<svg width="31" height="27" viewBox="0 0 31 27" fill="none" xmlns="http://www.w3.org/2000/svg">
<path d="M13.3219 20.8193C11.6463 20.8193 10.2827 22.1498 10.2827 23.7832C10.2827 25.4172 11.6463 26.747 13.3219 26.747C14.9975 26.747 16.3611 25.4172 16.3611 23.7832C16.3611 22.149 14.9981 20.8193 13.3219 20.8193ZM13.3219 25.4297C12.3913 25.4297 11.6335 24.6914 11.6335 23.7832C11.6335 22.8756 12.3913 22.1366 13.3219 22.1366C14.2525 22.1366 15.0103 22.8756 15.0103 23.7832C15.0104 24.6914 14.2532 25.4297 13.3219 25.4297Z" fill="white"/>
<path d="M22.8458 20.8193C21.1702 20.8193 19.8066 22.1498 19.8066 23.7832C19.8066 25.4172 21.1702 26.747 22.8458 26.747C24.5207 26.747 25.885 25.4172 25.885 23.7832C25.885 22.149 24.5207 20.8193 22.8458 20.8193ZM22.8458 25.4297C21.9145 25.4297 21.1574 24.6914 21.1574 23.7832C21.1574 22.8756 21.9145 22.1366 22.8458 22.1366C23.7758 22.1366 24.5342 22.8756 24.5342 23.7832C24.5343 24.6914 23.7758 25.4297 22.8458 25.4297Z" fill="white"/>
<path d="M30.2909 6.86382C30.1633 6.72809 29.9674 6.64901 29.7594 6.64901H6.92452L5.0423 0.891255C5.03823 0.878903 5.02743 0.86938 5.02203 0.85758C5.00715 0.821146 4.98489 0.789127 4.96121 0.756626C4.93894 0.725781 4.91867 0.695488 4.89034 0.669128C4.86267 0.642768 4.83027 0.623102 4.79645 0.601849C4.7613 0.579422 4.72757 0.557547 4.68769 0.541262C4.65055 0.525529 4.61067 0.517732 4.56954 0.507588C4.52567 0.496961 4.48313 0.487991 4.43652 0.485161C4.42032 0.484609 4.40678 0.477295 4.38991 0.477295H0.675403C0.302598 0.477295 0 0.72861 0 1.03823C0 1.34786 0.302598 1.59917 0.675403 1.59917H3.87329L5.75285 7.34962L9.12837 18.7064C9.20265 18.9571 9.47351 19.1332 9.78416 19.1332H26.382C26.6927 19.1332 26.9629 18.9577 27.0378 18.7064L30.4146 7.34458C30.4652 7.17683 30.4192 7.00011 30.2909 6.86382ZM25.8538 18.0113H10.3135L7.27032 7.77082H28.8976L25.8538 18.0113Z" fill="white"/>
</svg>
