<svg width="20" height="20" viewBox="0 0 20 20" fill="none" xmlns="http://www.w3.org/2000/svg">
<path d="M10 0C4.47035 0 0 4.47035 0 10C0 15.5297 4.47035 20 10 20C15.5297 20 20 15.5337 20 10C20 4.46626 15.5337 0 10 0ZM10.8507 18.2986V17.8732C10.8507 17.407 10.4663 17.0225 10 17.0225C9.53374 17.0225 9.14928 17.407 9.14928 17.8732V18.2986C5.23108 17.8977 2.10225 14.7689 1.70552 10.8548H2.08589C2.55215 10.8548 2.93661 10.4703 2.93661 10.0041C2.93661 9.53783 2.55215 9.15337 2.08589 9.15337H1.70552C2.10634 5.23517 5.23517 2.10634 9.14928 1.70961V2.08589C9.14928 2.55215 9.53374 2.93661 10 2.93661C10.4663 2.93661 10.8507 2.55215 10.8507 2.08589V1.70552C14.7689 2.10634 17.8977 5.23517 18.2945 9.14928H17.8732C17.407 9.14928 17.0225 9.53374 17.0225 10C17.0225 10.4663 17.407 10.8507 17.8732 10.8507H18.2986C17.8977 14.7689 14.7689 17.8977 10.8507 18.2986Z" fill="white"/>
<path d="M10.0001 5.10822C9.53386 5.10822 9.14941 5.49268 9.14941 5.95893V9.70128L5.27619 14.4702C4.97762 14.8547 5.06351 15.3618 5.40298 15.6604C5.87742 16.0081 6.38049 15.7463 6.55227 15.5336L10.6831 10.5111C10.769 10.3843 10.8549 10.2125 10.8549 9.99985V5.95893C10.8508 5.48859 10.4705 5.10822 10.0001 5.10822Z" fill="white"/>
</svg>
