<svg width="20" height="20" viewBox="0 0 20 20" fill="none" xmlns="http://www.w3.org/2000/svg">
<path d="M4.79141 4.84492H5.70032C6.03463 4.84492 6.30626 4.62945 6.30626 4.36565V0.479269C6.30626 0.214169 6.03463 0 5.70032 0H4.79141C4.4584 0 4.18677 0.214169 4.18677 0.479269V4.36565C4.18547 4.62945 4.4571 4.84492 4.79141 4.84492Z" fill="white"/>
<path d="M14.2997 4.84492H15.2086C15.5429 4.84492 15.8146 4.62945 15.8146 4.36565V0.479269C15.8146 0.214169 15.5429 0 15.2086 0H14.2997C13.9654 0 13.6951 0.214169 13.6951 0.479269V4.36565C13.6951 4.62945 13.9654 4.84492 14.2997 4.84492Z" fill="white"/>
<path d="M18.9514 1.85443H16.5407V4.82929C16.5407 5.494 15.9426 6.03465 15.2074 6.03465H14.2984C13.5632 6.03465 12.9651 5.494 12.9651 4.82929V1.85443H7.03105V4.82929C7.03105 5.494 6.43295 6.03465 5.69772 6.03465H4.79142C4.0575 6.03465 3.45939 5.494 3.45939 4.82929V1.85443H1.04868C0.647766 1.85443 0.321289 2.18091 0.321289 2.58182V19.2753C0.321289 19.6762 0.647766 20 1.04868 20H18.9514C19.3536 20 19.6788 19.6762 19.6788 19.2753V2.58182C19.6788 2.18091 19.3536 1.85443 18.9514 1.85443ZM18.6954 12.3931V18.0725C18.6954 18.1979 18.5936 18.3024 18.4669 18.3024H9.7382H1.53317C1.4065 18.3024 1.30464 18.1979 1.30464 18.0725V13.464V7.78456C1.30464 7.6592 1.4065 7.55472 1.53317 7.55472H10.2606H18.4669C18.5936 7.55472 18.6954 7.6592 18.6954 7.78456V12.3931Z" fill="white"/>
<path d="M5.30457 11.6618H3.03882V13.9289H5.30457V11.6618Z" fill="white"/>
<path d="M9.16102 11.6618H6.89526V13.9289H9.16102V11.6618Z" fill="white"/>
<path d="M12.9783 11.6618H10.7139V13.9289H12.9783V11.6618Z" fill="white"/>
<path d="M16.8357 11.6618H14.5686V13.9289H16.8357V11.6618Z" fill="white"/>
<path d="M5.353 14.9291H3.08594V17.1962H5.353V14.9291Z" fill="white"/>
<path d="M9.20936 14.9291H6.9436V17.1962H9.20936V14.9291Z" fill="white"/>
<path d="M13.0264 14.9291H10.762V17.1962H13.0264V14.9291Z" fill="white"/>
<path d="M16.8842 14.9291H14.6184V17.1962H16.8842V14.9291Z" fill="white"/>
<path d="M12.9938 8.44922H10.728V10.715H12.9938V8.44922Z" fill="white"/>
<path d="M16.8514 8.44922H14.5869V10.715H16.8514V8.44922Z" fill="white"/>
</svg>
