<svg width="19" height="19" viewBox="0 0 19 19" fill="none" xmlns="http://www.w3.org/2000/svg">
<g clip-path="url(#clip0_125_361)">
<path d="M16.4222 6.06492L13.3869 1.6403C13.1645 1.31612 12.7202 1.2329 12.3947 1.4546C12.0692 1.67658 11.9859 2.11904 12.2084 2.4435L14.6886 6.05828H5.08935L7.56912 2.4435C7.79184 2.11914 7.70834 1.67658 7.3828 1.4546C7.05735 1.23262 6.61312 1.31612 6.39087 1.6403L3.35552 6.06492C2.03401 6.13178 0.97876 7.22119 0.97876 8.55494C0.97876 9.21255 1.24023 9.83501 1.7049 10.3018L2.70949 16.2216C2.74496 17.1887 3.5454 17.9646 4.52401 17.9646H15.2536C16.2322 17.9646 17.0326 17.1889 17.0681 16.2216L18.0727 10.3021C18.5373 9.8351 18.7991 9.21265 18.7991 8.55503C18.799 7.22148 17.7438 6.13178 16.4222 6.06492ZM16.9626 9.3861L16.7514 9.55543L15.6516 16.0358L15.6416 16.1544C15.6416 16.3676 15.4677 16.5414 15.2535 16.5414H4.52401C4.30982 16.5414 4.1357 16.3679 4.1357 16.1544L3.02594 9.55562L2.81485 9.38628C2.55498 9.17786 2.40609 8.87472 2.40609 8.55466C2.40609 7.9625 2.88906 7.48114 3.48273 7.48114H16.2942C16.8879 7.48114 17.3708 7.96278 17.3708 8.55466C17.3714 8.875 17.2225 9.17814 16.9626 9.3861Z" fill="black"/>
<path d="M13.343 9.34009C12.9488 9.34009 12.6292 9.65856 12.6292 10.0516V15.0384C12.6292 15.4313 12.9487 15.7499 13.343 15.7499C13.7373 15.7499 14.0569 15.4314 14.0569 15.0384V10.0515C14.0568 9.65856 13.7372 9.34009 13.343 9.34009Z" fill="black"/>
<path d="M9.88915 9.34009C9.49493 9.34009 9.17529 9.65856 9.17529 10.0516V15.0384C9.17529 15.4313 9.49483 15.7499 9.88915 15.7499C10.2834 15.7499 10.603 15.4314 10.603 15.0384V10.0515C10.603 9.65856 10.2834 9.34009 9.88915 9.34009Z" fill="black"/>
<path d="M6.43431 9.34009C6.04009 9.34009 5.72046 9.65856 5.72046 10.0516V15.0384C5.72046 15.4313 6.04 15.7499 6.43431 15.7499C6.82863 15.7499 7.14817 15.4314 7.14817 15.0384V10.0515C7.14835 9.65856 6.82863 9.34009 6.43431 9.34009Z" fill="black"/>
</g>
<defs>
<clipPath id="clip0_125_361">
<rect width="17.8203" height="17.7609" fill="white" transform="translate(0.97876 0.766968)"/>
</clipPath>
</defs>
</svg>
