<svg width="27" height="26" viewBox="0 0 27 26" fill="none" xmlns="http://www.w3.org/2000/svg">
<path d="M23.3658 8.09726L18.828 1.46033C18.4954 0.974062 17.8313 0.849234 17.3446 1.18178C16.8581 1.51475 16.7335 2.17844 17.0661 2.66513L20.774 8.0873H6.42316L10.1304 2.66513C10.4634 2.17858 10.3386 1.51475 9.85187 1.18178C9.36532 0.848813 8.70121 0.974062 8.36894 1.46033L3.83109 8.09726C1.85544 8.19754 0.277832 9.83167 0.277832 11.8323C0.277832 12.8187 0.668726 13.7524 1.36342 14.4526L2.86528 23.3323C2.9183 24.783 4.11496 25.9468 5.57798 25.9468H21.6187C23.0817 25.9468 24.2784 24.7833 24.3314 23.3323L25.8332 14.453C26.5279 13.7525 26.9192 12.8188 26.9192 11.8324C26.9191 9.83209 25.3415 8.19754 23.3658 8.09726ZM24.1737 13.079L23.8579 13.333L22.2138 23.0536L22.1988 23.2315C22.1988 23.5513 21.9387 23.812 21.6185 23.812H5.57798C5.25777 23.812 4.99746 23.5517 4.99746 23.2315L3.33837 13.3333L3.02279 13.0793C2.63428 12.7667 2.41169 12.312 2.41169 11.8319C2.41169 10.9436 3.13373 10.2216 4.02127 10.2216H23.1744C24.0619 10.2216 24.784 10.944 24.784 11.8319C24.7848 12.3124 24.5622 12.7671 24.1737 13.079Z" fill="white"/>
</svg>
